inDegrees=no
num_controls=7
num_derivatives=13
num_iterations=76
num_multipliers=7
num_parameters=0
num_slacks=7
num_states=26
objective=0.448632
objective_accelerations=0.008702
objective_balance=0.000654
objective_effort=0.005906
objective_height=0.424086
objective_ligament=0.009285
solver_duration=1141.598142
status=Solve_Succeeded
success=true
DataType=double
version=3
OpenSimVersion=4.5
endheader
time	/jointset/ground_pelvis/pelvis_tilt/value	/jointset/ground_pelvis/pelvis_tx/value	/jointset/ground_pelvis/pelvis_ty/value	/jointset/hip_l/hip_flexion_l/value	/jointset/hip_l/hip_adduction_l/value	/jointset/hip_l/hip_rotation_l/value	/jointset/back/lumbar_extension/value	/jointset/patellofemoral_l/patellar_flexion_l/value	/jointset/knee_l/knee_flexion_l/value	/jointset/knee_l/knee_adduction_l/value	/jointset/knee_l/knee_rotation_l/value	/jointset/ankle_l/ankle_angle_l/value	/jointset/subtalar_l/subtalar_angle_l/value	/jointset/ground_pelvis/pelvis_tilt/speed	/jointset/ground_pelvis/pelvis_tx/speed	/jointset/ground_pelvis/pelvis_ty/speed	/jointset/hip_l/hip_flexion_l/speed	/jointset/hip_l/hip_adduction_l/speed	/jointset/hip_l/hip_rotation_l/speed	/jointset/back/lumbar_extension/speed	/jointset/patellofemoral_l/patellar_flexion_l/speed	/jointset/knee_l/knee_flexion_l/speed	/jointset/knee_l/knee_adduction_l/speed	/jointset/knee_l/knee_rotation_l/speed	/jointset/ankle_l/ankle_angle_l/speed	/jointset/subtalar_l/subtalar_angle_l/speed	/forceset/tau_hip_flexion_l	/forceset/tau_hip_adduction_l	/forceset/tau_hip_rotation_l	/forceset/tau_knee_flexion_l	/forceset/tau_ankle_angle_l	/forceset/tau_subtalar_angle_l	/forceset/tau_lumbar_extension	lambda_cid13_p0	lambda_cid13_p1	lambda_cid13_p2	lambda_cid13_p3	lambda_cid13_p4	lambda_cid13_p5	lambda_cid14_p0	/jointset/ground_pelvis/pelvis_tilt/accel	/jointset/ground_pelvis/pelvis_tx/accel	/jointset/ground_pelvis/pelvis_ty/accel	/jointset/hip_l/hip_flexion_l/accel	/jointset/hip_l/hip_adduction_l/accel	/jointset/hip_l/hip_rotation_l/accel	/jointset/back/lumbar_extension/accel	/jointset/patellofemoral_l/patellar_flexion_l/accel	/jointset/knee_l/knee_flexion_l/accel	/jointset/knee_l/knee_adduction_l/accel	/jointset/knee_l/knee_rotation_l/accel	/jointset/ankle_l/ankle_angle_l/accel	/jointset/subtalar_l/subtalar_angle_l/accel	gamma_cid13_p0	gamma_cid13_p1	gamma_cid13_p2	gamma_cid13_p3	gamma_cid13_p4	gamma_cid13_p5	gamma_cid14_p0
1	0.09478271130463817	0.2522844701903068	0.8807962873648372	0.0004935682771939716	-0.353217172223054	-0.2376177749648291	-0.06576022918225326	0.4016067108174253	0.4016067108174252	-0.06554103845329838	-0.1739426217299836	0.3956687375056833	0.2226643081446839	-0.1346993822940932	0.03600341175846416	0.004214963866841578	0.02288021997568339	0.03177876866961997	-0.07635289420435892	0.1584396876669602	-0.1478032388568155	-0.1478032388568156	0.03499759250986982	0.00229153840134891	-0.03727547370093891	0.02984752704099516	0.09483778703576427	0.04874769346893652	0.001389272059985051	-0.1483985494278288	-0.1213039078061055	-0.02223543133914957	-0.03320518377866829	-68.97219103545206	20.16344715680547	-1.702375785835054	13.81112369961243	-472.4072128079756	-44.21918431756448	-24.30742697805079	-0.5208790549142069	-0.4471646845422106	0.1810641294503917	0.5476759534607869	0.2210158456361283	-0.1761578478199315	-0.2510508060985451	-1.211434367302995	-1.211434367302994	-0.008612470554100533	0.04444434330231404	-1.272303502317611	-0.3654854562576223	-6.314423643850752e-09	2.822802539844119e-08	-2.294045280079106e-08	6.963633175051083e-09	-1.011698455159666e-08	3.287770228909042e-08	2.938506432817283e-09
1.01	0.09340966041962864	0.2526221434387209	0.8808474309704851	0.0007498980569724829	-0.3528885558989525	-0.2383903238001627	-0.06418847705066393	0.4000684279021662	0.4000684279021658	-0.06519182105674318	-0.173918075479216	0.395232478929485	0.2229442092575941	-0.1398952241699143	0.03153034546117849	0.006012910435680752	0.02836603534729287	0.0339392712275071	-0.07816154134594575	0.1558790535429877	-0.1598564766479791	-0.1598564766479791	0.03483207599795997	0.002602698143698471	-0.049977764245953	0.02612229612954131	0.09475678013019209	0.04867083060538265	0.001339477339062145	-0.147752130587801	-0.1214880833241819	-0.02225962405065027	-0.03332452482537936	-69.02133399744137	20.1351944273778	-1.643770166723598	13.76006812740925	-472.313233492842	-44.24314376451364	-24.33094626010897	-0.5166012972672013	-0.4475099237747057	0.1790306622850671	0.54607883822093	0.2127840002053147	-0.1839145064711959	-0.2633224817338344	-1.202739005241638	-1.20273900524163	-0.02258930002312582	0.02219660774582409	-1.269419986785388	-0.377604002326491	-7.281848318363878e-09	3.476907173079017e-08	-2.581575979354027e-08	7.732374920138041e-09	-1.116074134686462e-08	3.935489627795187e-08	3.258133511747522e-09
1.02	0.09198511820719067	0.2529150595598718	0.8809165281901582	0.001060494892309074	-0.352538491241404	-0.2391810983787408	-0.06264328181355178	0.3984095185049518	0.398409518504951	-0.06484467243700981	-0.173890868667416	0.3946691518165982	0.2231865456426425	-0.1449976477797812	0.0270519863057747	0.007805686671895563	0.03373363108729843	0.0360684353590066	-0.07999804285325812	0.1531283087715263	-0.1719285352478865	-0.1719285352478866	0.03458383714550218	0.002823650607829908	-0.0626891810386504	0.02233458146859848	0.0946757732246199	0.04859396774182875	0.001289682618139295	-0.1471057117477732	-0.1216722588422583	-0.02228381676215102	-0.03344386587209044	-69.07420000932524	20.10335292480807	-1.57974866045082	13.72699673787255	-472.2995125650762	-44.2930085569175	-24.35618210151122	-0.5021954017233982	-0.4482232561658384	0.1800300629255194	0.5240320271400009	0.2147481603586	-0.1817287209650452	-0.2890729355963343	-1.215198529051768	-1.215198529051768	-0.0251569386636874	0.02640288765868921	-1.274128751854275	-0.3779822061554188	-8.012348740684626e-09	4.090518694727885e-08	-2.926533326671088e-08	8.436193414384959e-09	-1.181193075397916e-08	4.679389295852097e-08	3.598315495178399e-09
1.03	0.09050991060476066	0.2531631659620734	0.8810035016051733	0.001424359541557428	-0.3521673182796071	-0.2399905135233815	-0.06112636411328985	0.3966299270370214	0.3966299270370213	-0.06450038752797628	-0.1738620781391998	0.393978718669229	0.2233906957137442	-0.1500387206102073	0.02256842196036824	0.009585613579642873	0.03903736766148475	0.03815827484052087	-0.08190036127227449	0.1502410532062232	-0.1839799297974197	-0.1839799297974197	0.03426162881736897	0.002904775135762534	-0.07539368640657862	0.01848528418971726	0.09448783811884086	0.04852347704333521	0.001238923826990994	-0.1463136119997917	-0.1218478008176531	-0.02233428861390361	-0.03348640077501893	-69.11818122376241	20.07831422895537	-1.513322539452565	13.69185035769152	-472.1624449295879	-44.29843432546731	-24.38311423542071	-0.5042907222253267	-0.4485520177256717	0.176464096235239	0.533254181767013	0.2049198909699452	-0.1967848409353199	-0.2906785781925385	-1.19863642659393	-1.19863642659393	-0.03747541854905137	-0.005488555976009118	-1.268046601557405	-0.3899290254719697	-8.740431568595247e-09	4.703717021360568e-08	-3.272076660192662e-08	9.139349426480449e-09	-1.245911437141867e-08	5.424270395227078e-08	3.938707222532752e-09
